<?xml version="1.0" standalone="no"?>
<svg xmlns="http://www.w3.org/2000/svg" viewBox="0 0 140.304 36" width="140.304" height="36"><g fill="#ead017" color="#ead017" transform="translate(0 3.9999999999999982) scale(0.2800001)"><svg width="100.0" height="100.0" x="0.0" y="0.0" viewBox="0 0 100 100"><g><path d="M85.9,41.8c1.4-1.9,2.2-4.3,2.2-6.8c0-6.5-5.3-11.9-11.9-11.9c-2.6,0-4.9,0.8-6.9,2.2c-2.5-4.8-7.5-8.1-13.3-8.1   c-8,0-14.5,6.2-15,14.1c0,0,0,0,0,0c-10.1,0-18.3,8.2-18.3,18.3S30.8,68,41,68c4.8,0,9.2-1.9,12.5-4.9c2.7,3,6.7,4.9,11.1,4.9   c3.9,0,7.5-1.5,10.2-4c2.4,2.5,5.7,4,9.4,4c7.3,0,13.2-5.9,13.2-13.2C97.3,48.2,92.3,42.7,85.9,41.8z"></path><g><path d="M30,72.6l1-1.7C23,67.3,17.4,59.3,17.4,50c0-4.3,1.2-8.3,3.3-11.8L19,37.2c-2.3,3.8-3.6,8.2-3.6,12.8    C15.4,60,21.4,68.7,30,72.6z"></path><path d="M27.4,77.2l1-1.7c-9.8-4.4-16.7-14.2-16.7-25.7c0-5.2,1.4-10.1,4-14.4l-1.8-0.9c-2.7,4.5-4.2,9.8-4.2,15.3    C9.7,62,16.9,72.5,27.4,77.2z"></path><path d="M4.7,49.5c0-6.3,1.7-12.2,4.7-17.4l-1.8-0.9c-3.2,5.5-5,11.8-5,18.4c0,14.8,8.8,27.5,21.5,33.2l1-1.7    C13.1,75.6,4.7,63.6,4.7,49.5z"></path></g></g></svg></g><path fill="#000000" fill-rule="nonzero" d="M12.74 13.68L13.42 15.02Q12.38 16.01 10.67 16.55Q8.95 17.09 6.86 17.09L6.86 17.09Q4.66 17.09 3.11 16.49Q1.56 15.89 0.78 14.83Q0 13.78 0 12.41L0 12.41Q0 10.90 0.90 9.84Q1.80 8.78 3.26 8.38L3.26 8.38Q2.06 7.92 1.39 6.92Q0.72 5.93 0.72 4.58L0.72 4.58Q0.72 3.31 1.45 2.27Q2.18 1.22 3.66 0.61Q5.14 0 7.22 0L7.22 0Q8.76 0 10.21 0.35Q11.66 0.70 12.70 1.34L12.70 1.34L12.14 2.76Q9.94 1.51 7.30 1.51L7.30 1.51Q4.97 1.51 3.73 2.40Q2.50 3.29 2.50 4.70L2.50 4.70Q2.50 6.12 3.49 6.89Q4.49 7.66 6.31 7.66L6.31 7.66L10.49 7.66L10.49 9.19L6.24 9.19Q4.18 9.19 2.98 9.97Q1.78 10.75 1.78 12.29L1.78 12.29Q1.78 13.80 3.08 14.69Q4.39 15.58 6.94 15.58L6.94 15.58Q8.71 15.58 10.25 15.07Q11.78 14.57 12.74 13.68L12.74 13.68ZM32.02 4.22Q34.39 4.22 35.75 5.59Q37.10 6.96 37.10 9.62L37.10 9.62L37.10 16.94L35.40 16.94L35.40 9.79Q35.40 7.82 34.45 6.79Q33.50 5.76 31.78 5.76L31.78 5.76Q29.81 5.76 28.68 6.97Q27.55 8.18 27.55 10.32L27.55 10.32L27.55 16.94L25.85 16.94L25.85 9.79Q25.85 7.82 24.90 6.79Q23.95 5.76 22.20 5.76L22.20 5.76Q20.26 5.76 19.12 6.97Q17.98 8.18 17.98 10.32L17.98 10.32L17.98 16.94L16.27 16.94L16.27 4.32L17.90 4.32L17.90 6.62Q18.58 5.47 19.78 4.85Q20.98 4.22 22.54 4.22L22.54 4.22Q24.12 4.22 25.28 4.90Q26.45 5.57 27.02 6.89L27.02 6.89Q27.72 5.64 29.03 4.93Q30.34 4.22 32.02 4.22L32.02 4.22ZM48.24 4.22Q50.02 4.22 51.46 5.03Q52.90 5.83 53.71 7.30Q54.53 8.76 54.53 10.63L54.53 10.63Q54.53 12.53 53.71 13.99Q52.90 15.46 51.47 16.26Q50.04 17.06 48.24 17.06L48.24 17.06Q46.70 17.06 45.47 16.43Q44.23 15.79 43.44 14.57L43.44 14.57L43.44 21.60L41.74 21.60L41.74 4.32L43.37 4.32L43.37 6.82Q44.14 5.57 45.40 4.90Q46.66 4.22 48.24 4.22L48.24 4.22ZM48.12 15.55Q49.44 15.55 50.52 14.94Q51.60 14.33 52.21 13.20Q52.82 12.07 52.82 10.63L52.82 10.63Q52.82 9.19 52.21 8.08Q51.60 6.96 50.52 6.34Q49.44 5.71 48.12 5.71L48.12 5.71Q46.78 5.71 45.71 6.34Q44.64 6.96 44.03 8.08Q43.42 9.19 43.42 10.63L43.42 10.63Q43.42 12.07 44.03 13.20Q44.64 14.33 45.71 14.94Q46.78 15.55 48.12 15.55L48.12 15.55ZM63.62 14.95L64.22 16.18Q63.74 16.61 63.05 16.84Q62.35 17.06 61.58 17.06L61.58 17.06Q59.81 17.06 58.85 16.10Q57.89 15.14 57.89 13.39L57.89 13.39L57.89 1.56L59.59 1.56L59.59 4.32L63.41 4.32L63.41 5.76L59.59 5.76L59.59 13.30Q59.59 14.42 60.14 15.01Q60.70 15.60 61.75 15.60L61.75 15.60Q62.90 15.60 63.62 14.95L63.62 14.95ZM76.99 4.32L78.70 4.32L78.70 16.94L77.06 16.94L77.06 14.64Q76.39 15.79 75.22 16.43Q74.04 17.06 72.53 17.06L72.53 17.06Q70.06 17.06 68.63 15.68Q67.20 14.30 67.20 11.64L67.20 11.64L67.20 4.32L68.90 4.32L68.90 11.47Q68.90 13.46 69.89 14.50Q70.87 15.53 72.70 15.53L72.70 15.53Q74.69 15.53 75.84 14.32Q76.99 13.10 76.99 10.94L76.99 10.94L76.99 4.32ZM99.22 4.22Q101.59 4.22 102.95 5.59Q104.30 6.96 104.30 9.62L104.30 9.62L104.30 16.94L102.60 16.94L102.60 9.79Q102.60 7.82 101.65 6.79Q100.70 5.76 98.98 5.76L98.98 5.76Q97.01 5.76 95.88 6.97Q94.75 8.18 94.75 10.32L94.75 10.32L94.75 16.94L93.05 16.94L93.05 9.79Q93.05 7.82 92.10 6.79Q91.15 5.76 89.40 5.76L89.40 5.76Q87.46 5.76 86.32 6.97Q85.18 8.18 85.18 10.32L85.18 10.32L85.18 16.94L83.47 16.94L83.47 4.32L85.10 4.32L85.10 6.62Q85.78 5.47 86.98 4.85Q88.18 4.22 89.74 4.22L89.74 4.22Q91.32 4.22 92.48 4.90Q93.65 5.57 94.22 6.89L94.22 6.89Q94.92 5.64 96.23 4.93Q97.54 4.22 99.22 4.22L99.22 4.22Z" transform="translate(36, 9.528)"></path></svg>